<svg xmlns="http://www.w3.org/2000/svg" viewBox="0 0 40 40" width="40" height="40">
  <ellipse cx="20" cy="26" rx="16" ry="6" fill="#2496ED" opacity="0.1"/>
  <path d="M8 20c0-2 1-4 3-5h2v4h4v-4h4v4h4v-4h4c2 1 3 3 3 5 0 4-5 8-12 8S8 24 8 20z" fill="#2496ED"/>
  <rect x="11" y="18" width="3" height="3" rx="0.5" fill="#fff" opacity="0.5"/>
  <rect x="15" y="18" width="3" height="3" rx="0.5" fill="#fff" opacity="0.5"/>
  <rect x="19" y="18" width="3" height="3" rx="0.5" fill="#fff" opacity="0.5"/>
  <rect x="23" y="18" width="3" height="3" rx="0.5" fill="#fff" opacity="0.5"/>
  <rect x="15" y="14" width="3" height="3" rx="0.5" fill="#2496ED" opacity="0.5"/>
  <rect x="19" y="14" width="3" height="3" rx="0.5" fill="#2496ED" opacity="0.5"/>
</svg>
