<svg width="1920" height="1080" viewBox="0 0 1920 1080" fill="none" xmlns="http://www.w3.org/2000/svg">
<g clip-path="url(#clip0_3149_11121)">
<g clip-path="url(#clip1_3149_11121)">
<path d="M2826.9 1159.95L2826.81 1158.97L2827 1154.02L2826.4 1154.53L2819.49 1078.48L2819.61 1078.37L2819.37 1077.22L2818.99 1073.05L2818.91 1073.12L2801.43 918.106L2801.84 918.287L2800.99 914.184L2800.89 913.019L2800.74 912.953L2787.43 848.38L2787.89 848.532L2786.63 844.505L2786.4 843.37L2786.27 843.325L2765.38 776.189L2765.78 776.277L2764.22 772.479L2763.86 771.331L2758.45 753.919L2758.87 759.453L2735.45 702.436L2735.79 702.467L2734.03 698.996L2733.55 697.827L2733.54 697.826L2729.47 687.879L2729.53 690.105L2698.18 628.202L2698.47 628.185L2696.62 625.119L2696 623.898L2695.99 623.899L2692.92 617.808L2692.86 618.886L2654.08 554.541L2654.3 554.488L2652.95 552.568L2652.46 551.856L2651.67 550.558L2649.5 546.956L2649.4 547.498L2603.81 482.443L2603.98 482.366L2602.23 480.196L2599.94 476.927L2599.83 477.209L2588.27 462.849L2548.05 412.897L2548.17 412.805L2547.77 412.372L2546.55 411.041L2544.85 408.933L2544.74 409.074L2514.52 376.197L2488.02 347.369L2488.17 347.27L2487.7 346.822L2486.22 345.407L2484.6 343.649L2484.5 343.766L2424.8 286.753L2425.09 286.662L2422.05 284.124L2420.03 282.194L2419.93 282.359L2408.6 272.892L2358.97 231.437L2359.51 231.38L2356.13 228.927L2354.89 228.028L2352.44 225.983L2352.37 226.202L2300.89 188.91L2291.53 182.127L2292.6 182.157L2286.82 178.592L2285.66 177.873L2285.17 177.522L2282.77 175.779L2282.73 176.063L2223.69 139.621L2225.9 139.867L2215.27 134.421L2211.96 132.377L2211.96 132.725L2157.13 104.629L2162.54 105.495L2144.65 98.2309L2141.01 96.3675L2141.06 96.7767L2080.61 72.2374L2075.94 70.3442L2075.91 70.2067L2074.8 69.8777L2070.9 68.2963L2071.01 68.7625L2022.12 54.343L2007.89 50.1446L2007.83 49.9904L2006.66 49.7848L2002.67 48.6074L2002.82 49.0304L1850.29 19.0159L1850.36 18.944L1846.24 18.2183L1845.12 17.8895L1845.01 18.0003L1769.92 4.78212L1770.48 4.23113L1765.56 4.01451L1764.58 3.84219L1764.45 3.96588L1694.37 0.882938L1695.26 0L1689.3 0.637687L1689.15 0.653353L1688.35 0.61826L1688.22 0.753852L1670.75 2.62293L1624.61 7.55848L1626.28 5.90359L1618.46 8.1635L1618.16 8.24887L1617.59 8.31047L1602.17 9.95943L1608.58 11.0171L1562.11 24.4389L1566.16 20.4066L1553.63 26.8887L1543.87 29.7069L1547.26 30.1818L1497.36 55.9849L1497.1 55.956L1496.55 56.4017L1490.25 59.6599L1492.32 59.8868L1448.79 95.749L1448.5 95.7277L1447.92 96.4629L1443.84 99.8205L1444.52 99.8707L1402.69 141.641L1334.55 209.649L1290.33 253.784L1222.61 321.349L1177.86 366.008L1115.57 428.154L1115.51 427.295L1112.14 431.565L1111.44 432.142L1111.46 432.42L1075.79 477.598L1075.56 475.559L1072.33 481.981L1071.9 482.521L1071.93 482.772L1045.56 535.163L1045.1 532.016L1042.44 541.228L1042.34 541.577L1042.11 542.023L1042.12 542.056L1036.3 553.573L1039.9 549.985L1025.36 600.292L1024.41 594.932L1022.67 609.584L1022.58 609.905L1020.35 617.593L1021.9 616.057L1018.68 643.225L1013.84 684.056L1013.71 684.184L1013.73 684.982L1013 691.096L1013.86 690.251L1015.71 765.618L1015.59 765.737L1015.74 766.725L1015.86 771.673L1016.4 771.142L1028.56 852.37L1028.45 852.48L1028.75 853.612L1029.37 857.761L1029.64 857.502L1057.18 978.822L1061.68 998.687L1061.54 998.64L1062.52 1002.4L1062.71 1003.64L1062.86 1003.69L1080.74 1071.71L1080.33 1071.63L1081.66 1075.22L1081.99 1076.46L1082.13 1076.49L1097.83 1118.98L1108.06 1146.64L1107.71 1146.62L1109.27 1149.93L1109.73 1151.19L1109.87 1151.19L1143.47 1222.38L1143.17 1222.4L1144.87 1225.35L1145.49 1226.65L1145.49 1226.65L1151.05 1238.45L1150.61 1235.33L1186.52 1297.71L1186.28 1297.77L1188.02 1300.32L1188.81 1301.69L1188.82 1301.68L1192.37 1307.87L1192.33 1306.64L1209.95 1332.51L1236.49 1371.47L1236.31 1371.56L1238 1373.68L1240.98 1378.06L1241.07 1377.55L1244.09 1381.35L1292.63 1442.47L1292.5 1442.57L1294.11 1444.32L1295.98 1446.68L1296.1 1446.49L1353.48 1508.92L1353.28 1509.02L1353.96 1509.66L1355.46 1511.07L1357.06 1512.82L1357.18 1512.7L1417.48 1569.58L1416.97 1569.63L1419.66 1571.82L1421.06 1572.95L1421.73 1573.59L1423.03 1574.82L1423.13 1574.64L1483.99 1624.14L1482.78 1624.01L1489.91 1628.96L1492.29 1630.89L1492.37 1630.66L1551.53 1671.73L1548.49 1671.04L1560.93 1678.25L1563.72 1680.19L1563.77 1679.9L1594.56 1697.75L1631.81 1719.35L1631.81 1719.49L1633.02 1720.05L1636.18 1721.88L1636.19 1721.54L1636.63 1721.74L1703.86 1753.24L1703.87 1753.38L1705.09 1753.82L1708.53 1755.43L1708.49 1755.02L1774.69 1778.54L1774.72 1778.69L1775.94 1778.98L1779.6 1780.28L1779.56 1780.12L1917.13 1823.57L1916.86 1823.81L1920.93 1824.77L1922.03 1825.16L1922.15 1825.06L2002.01 1843.96L2001.44 1844.45L2006.34 1844.98L2007.31 1845.21L2007.43 1845.1L2016.22 1846.05L2082.32 1853.22L2081.42 1854L2087.34 1853.79L2087.53 1853.79L2088.33 1853.87L2088.47 1853.75L2122.27 1852.57L2156.83 1851.35L2155.18 1852.77L2162.98 1851.19L2163.31 1851.13L2163.9 1851.11L2178.09 1850.61L2172.81 1849.21L2224.08 1838.87L2220.25 1842.14L2232.14 1837.33L2232.6 1837.15L2242.38 1835.18L2239.27 1834.45L2261.17 1825.59L2293.59 1812.48L2293.83 1812.53L2294.4 1812.15L2301.08 1809.44L2299.06 1809.05L2346.95 1777.2L2347.22 1777.24L2347.85 1776.6L2352.39 1773.58L2351.53 1773.44L2466.49 1675.16L2586.66 1572.42L2704.78 1471.49L2704.78 1472.15L2708.44 1468.38L2709.23 1467.86L2709.23 1467.57L2748.56 1427.07L2748.62 1429.14L2752.37 1423.15L2752.86 1422.64L2752.85 1422.38L2782.69 1374.71L2782.88 1378.11L2786.36 1368.97L2786.48 1368.65L2786.74 1368.23L2786.74 1368.2L2794.04 1356.57L2789.64 1360.34L2806.85 1315.07L2807.37 1321.49L2810.27 1306.34L2810.38 1305.77L2813.4 1297.82L2811.61 1299.36L2813.21 1290.98L2823.66 1236.44L2823.81 1236.31L2823.84 1235.52L2823.87 1235.36L2825 1229.45L2824.04 1230.27L2826.77 1160.07L2826.9 1159.95ZM2809.13 1288.82L2804.45 1231.44L2793.64 1098.89L2794.05 1097.82L2793.82 1097.64L2801.29 1059.17L2801.64 1057.38L2819.41 1235.16L2809.13 1288.82ZM2752.64 1414.4L2746.66 1193.1L2747.53 1192.22L2747.23 1191.92L2767.99 1159.31L2770.22 1155.81L2782.25 1367.08L2752.64 1414.4ZM2556.44 1592.46L2463.84 1671.64L2441.07 1686.75L2526.1 1613.99L2533.62 1607.57L2556.44 1592.46ZM2435.97 1695.45L2345.22 1773.04L2322.59 1788.09L2407.18 1715.73L2413.34 1710.47L2435.97 1695.45ZM2093.82 1849.14L2098.32 1845.25L2206.88 1751.58L2207.02 1751.46L2215.27 1751.21L2275.54 1749.35L2162.2 1846.74L2093.82 1849.14ZM1298.56 1442.63L1320.58 1408.1L1357.27 1448.04L1393.45 1487.43L1357.49 1506.76L1298.56 1442.63ZM1187.4 1290.39L1148.95 1223.59L1137.38 1141.8L1184.75 1224.04L1184.65 1224.14L1185.35 1225.17L1187.4 1290.39ZM1018.17 685.99L1124.4 580.962L1125.24 580.128L1127.42 655.742L1020.02 761.378L1018.17 685.99ZM1115.28 434.688L1199.5 350.648L1187.08 366.421L1183.15 371.408L1098.97 455.351L1115.28 434.688ZM1311.65 238.74L1300.61 252.777L1295.21 259.649L1291.9 262.954L1209.35 345.274L1225.72 324.487L1311.65 238.74ZM1455.17 96.2205L1498.46 60.5587L1720 84.8288L1699.79 101.826L1687.01 112.581L1686.66 112.226L1685.84 113.294L1569.69 104.697L1455.17 96.2205ZM1554.84 31.2431L1763.72 60.5176L1735.35 75.4452L1725.9 80.4161L1725.63 80.0941L1724.68 80.8907L1505.3 56.855L1554.84 31.2431ZM1635 10.8968L1689.14 5.10588L1864.22 37.2694L1823.54 41.7506L1823.39 41.5112L1822.29 41.8338L1737.33 27.8002L1635 10.8968ZM2077.24 75.6432L2141.72 101.819L2160.59 245.955L2133.05 234.867L2115.16 227.665L2115.23 227.458L2114.26 227.177L2098.21 161.485L2077.24 75.6432ZM2417.76 286.297L2365.2 381.24L2335.39 356.381L2319.76 343.349L2319.84 343.228L2319.37 342.885L2354.63 233.571L2417.76 286.297ZM2646.93 551.666L2608.62 560.625L2535.22 577.787L2534.92 577.285L2534.79 577.36L2534.22 576.541L2500.84 528.838L2599.71 484.291L2646.93 551.666ZM1033.38 853.845L1141.85 747.789L1143.45 753.764L1164.81 833.729L1097.05 899.521L1055.9 939.47L1033.38 853.845ZM1450.51 100.313L1682.62 117.494L1674.33 128.322L1655.52 152.887L1655.1 152.516L1654.46 153.857L1416.46 145.819L1414.88 145.765L1450.51 100.313ZM1921.08 1820.13L1837.75 1790.54L1951.77 1690.32L1974.26 1698.4L2035.4 1720.37L1921.08 1820.13ZM1253.08 1316.38L1364.29 1212.11L1364.43 1211.98L1425.44 1288.64L1432.38 1297.37L1432.27 1297.47L1320.51 1401.24L1253.08 1316.38ZM1166.11 838.62L1166.39 838.352L1199.58 927.254L1164.14 961.396L1090.01 1032.8L1057.3 944.275L1166.11 838.62ZM2409.59 429.461L2234.62 605.246L2206.11 578.1L2303.64 462.078L2366.02 387.874L2409.59 429.461ZM2590.44 686.602L2356.86 779.41L2340.64 746.903L2565.33 636.793L2590.44 686.602ZM2705.64 1227.51L2666.64 1252.6L2648.81 1228.79L2546.18 1091.67L2573.99 1074.25L2705.64 1227.51ZM2039.22 1717.04L1955.56 1686.98L1991.66 1655.26L2071.09 1585.45L2071.2 1585.35L2155.15 1615.86L2154.76 1616.2L2039.22 1717.04ZM1288.92 272.165L1265.67 319.022L1214.46 369.994L1163.21 421L1186.61 374.198L1288.92 272.165ZM1687.07 118.954L1828.59 263.04L1808.97 289.341L1671.84 167.397L1658.83 155.83L1687.07 118.954ZM2030.97 471.676L2001.79 463.459L2064.48 217.329L2109.61 230.436L2030.97 471.676ZM2531.2 1603.83L2482.51 1623.23L2593.89 1527.78L2594.94 1527.58L2594.97 1527.28L2642.76 1508.42L2531.2 1603.83ZM1595.24 1456.67L1515.87 1381.74L1629.83 1276.96L1643.96 1290.33L1709.69 1352.48L1709.56 1352.6L1595.24 1456.67ZM1169.85 834.994L1280.23 727.866L1280.5 727.602L1300.01 779.374L1314.16 816.898L1314.06 816.995L1203.05 923.916L1169.85 834.994ZM1402.58 158.801L1385.23 193.994L1379.88 204.844L1379.58 204.848L1379.29 205.883L1275.41 309.32L1298.67 262.433L1402.58 158.801ZM1806.6 293.155L1792.15 324.325L1635.63 203.51L1656.55 159.72L1806.6 293.155ZM1857.08 243.723L1860.25 482L1845.89 494.641L1833.76 263.814L1847.45 252.021L1857.08 243.723ZM2166.53 551.036L2053.18 656.696L2022.95 635.084L2046.55 613.003L2136.14 529.209L2166.53 551.036ZM2643.43 894.922L2641.54 935.104L2511.8 941.548L2390.45 947.576L2391.94 921.839L2643.43 894.922ZM2662.58 1254.55L2617.22 1271.81L2509.98 1105.55L2542.19 1093.71L2662.58 1254.55ZM1950.92 1685.18L1865.2 1644.66L1925.08 1591.61L1980.66 1542.37L2066.75 1583.38L2066.47 1583.63L1950.92 1685.18ZM1204.84 928.33L1315.86 821.398L1316.07 821.194L1352.42 897.104L1359.53 911.947L1359.43 912.042L1284.36 983.735L1247.81 1018.65L1204.84 928.33ZM1259.14 633.15L1370.71 524.05L1394.34 609.933L1394.14 609.997L1394.45 610.823L1282.52 719.473L1259.14 633.15ZM1934.12 211.48L1968.16 207.439L1935.2 457.164L1911.82 460.226L1931.43 211.799L1934.12 211.48ZM2380.18 976.094L2285.86 1060.74L2270.03 1063.33L2271.23 1057.87L2384.5 956.112L2380.18 976.094ZM1774.65 1592.11L1889.73 1489.25L1889.83 1489.16L1926.26 1510.56L1976.54 1540.11L1976.32 1540.31L1860.96 1642.51L1774.65 1592.11ZM1900.91 467.806L1820.24 544.517L1820.36 544.054L1827.88 527.605L1885.56 472.7L1900.91 467.806ZM2305.83 958.185L2270.29 990.244L2264.86 961.431L2379.4 857.813L2385 886.761L2305.83 958.185ZM1555.18 1189.4L1670.24 1082.59L1742.84 1161.6L1745.56 1164.56L1629.98 1270.82L1555.18 1189.4ZM1283.95 724.25L1396.16 615.321L1430.04 704.343L1429.86 704.415L1430.19 705.108L1380.03 753.435L1317.62 813.563L1283.95 724.25ZM1242.4 464.305L1352.53 355.41L1355.35 430.542L1355.1 430.586L1355.27 431.609L1244.9 540.158L1242.4 464.305ZM1790.49 328.629L1781.4 364.352L1620.91 258.205L1634.15 207.955L1790.49 328.629ZM1598.32 992.694L1607.79 1004.57L1667.3 1079.16L1667.18 1079.26L1667.25 1079.34L1614.49 1128.32L1552.3 1186.04L1483.8 1100.06L1598.32 992.694ZM1364.5 276.928L1615.93 261.543L1611.43 309.294L1610.73 316.735L1610.22 316.451L1610.31 318.343L1357.03 347.791L1364.5 276.928ZM1878.17 711.632L1861.72 683.75L1950.85 599.874L1981.17 614.988L1878.17 711.632ZM2146.84 751.899L2171.19 782.241L2058.57 885.711L2034.44 855.561L2146.84 751.899ZM2250.91 929.447L2259.95 959.912L2187.88 1025.07L2166.17 1012.05L2162.62 1009.53L2250.91 929.447ZM2479.78 1106.7L2465.89 1109.03L2278.51 1066.42L2294.41 1063.82L2494.46 1104.23L2479.78 1106.7ZM2556.72 1282.26L2500.51 1282.84L2424.61 1113.62L2464.52 1113.5L2556.72 1282.26ZM2279.43 1506.27L2194.71 1475.13L2288.44 1246L2293.15 1234.49L2294.72 1235.25L2294.67 1234.83L2361.1 1259.8L2279.43 1506.27ZM1751.85 1164.65L1818.93 1097.28L1934.45 981.278L1998.88 1042.42L1832.11 1240.66L1751.85 1164.65ZM1631.14 460.876L1788.77 513.706L1802.79 562.566L1713.39 543.156L1650.56 529.512L1643.21 503.545L1631.14 460.876ZM1980.37 1234.13L2073.07 1103.52L2142.26 1152.5L2009.19 1375.76L1922.89 1315.12L1980.37 1234.13ZM1601.74 989.893L1812.54 839.595L1868.02 908.984L1670.67 1076.31L1601.74 989.893ZM2215.89 1047.02L2216.54 1191.85L2190.95 1176.59L2147.6 1150.73L2163.36 1040.64L2166.67 1017.51L2215.89 1047.02ZM2373.85 1102.64L2340.14 1093.75L2379.37 1103.4L2373.85 1102.64ZM2269.04 1073.24L2289.28 1227.68L2263.71 1215.21L2220.96 1194.37L2220.77 1150.33L2220.32 1049.31L2269.04 1073.24ZM2062.15 937.967L2109.95 977.38L2071.44 1096.67L2004.74 1041.71L2062.15 937.967ZM2145.97 1154.91L2215.87 1196.61L2100.09 1429.69L2012.9 1378.17L2145.97 1154.91ZM2105.15 967.689L2101.33 964.543L2102.9 963.117L2105.15 967.689ZM1886.47 734.17L1921.73 785.115L1813.72 833.808L1801.7 816.394L1764.59 762.681L1886.47 734.17ZM1966.78 841.483L2009.82 888.308L1934.36 974.877L1893.34 930.232L1874.38 909.6L1966.78 841.483ZM1946.18 851.178L1871.48 906.242L1816.46 837.425L1924.4 788.762L1963.9 838.112L1946.18 851.178ZM1900.83 743.219L1899.18 744.766L1896.33 740.657L1896.16 740.408L1898.83 742.012L1900.83 743.219ZM2012.94 891.46L2058.75 934.996L2001.36 1038.68L1937.46 978.045L2012.94 891.46ZM2446.36 1109.13L2421.48 1109.2L2291.93 1077.34L2271.96 1069.75L2270.91 1069.23L2446.36 1109.13ZM2242.63 1055.35L2268.59 1031.99L2267.09 1055.65L2258.67 1063.22L2242.63 1055.35ZM2162.58 1014.93L2143.54 1147.99L2126.29 1135.78L2075.14 1099.58L2089.28 1055.8L2113.69 980.176L2162.58 1014.93ZM2055.31 888.707L2035.56 906.858L2014.36 886.707L2008.07 879.87L2031.18 858.562L2046.14 877.251L2055.31 888.707ZM2005.08 876.617L1978.84 848.078L2002.01 826.635L2028.3 855.204L2005.08 876.617ZM1948.44 811.731L1944.66 807.007L1926.82 784.715L1925.05 782.161L1938.34 769.784L1967.59 793.95L1948.44 811.731ZM1922.51 778.489L1901.72 748.44L1904.67 745.682L1934.76 767.076L1922.51 778.489ZM1399.93 612.798L1647.49 534.131L1675.37 606.232L1434.14 702.703L1399.93 612.798ZM1617.93 385.256L1615.01 324.156L1776.82 413.769L1779.14 457.177L1700.59 422.134L1617.93 385.256ZM1652.34 534.425L1804.3 567.425L1824.04 618.033L1679.78 605.39L1652.34 534.425ZM1790.96 501.488L1789.4 492.638L1783.73 460.413L1783.4 454.174L1790.96 501.488ZM1677.13 610.291L1712.85 683.468L1479.91 798.06L1435.89 706.766L1677.13 610.291ZM1820.24 596.15L1813.72 579.413L1822.15 571.411L1845.84 571.888L1820.24 596.15ZM1813.44 573.585L1813.53 572.465L1814.8 572.294L1813.44 573.585ZM1808.73 566.622L1808.02 564.801L1802.43 545.318L1786.85 447.805L1781.18 412.342L1783.32 387.44L1808.73 566.622ZM1777.05 408.84L1614.94 319.068L1620.22 263.051L1780.46 369.032L1777.05 408.84ZM1760.29 764.222L1809.9 836.044L1659.09 943.572L1599.1 986.341L1537.54 896.838L1760.29 764.222ZM1870.9 912.342L1931.34 978.13L1748.75 1161.5L1673.54 1079.66L1870.9 912.342ZM2103.98 1431.78L2132.84 1373.68L2219.76 1198.7L2289.17 1232.55L2190.64 1473.41L2103.98 1431.78ZM2338.5 1246.58L2294.02 1229.86L2273.74 1075.16L2321.23 1093.21L2360.73 1254.93L2338.5 1246.58ZM2411.37 1206.95L2376.68 1107.5L2419.69 1113.44L2495.45 1282.36L2434.89 1274.38L2411.37 1206.95ZM2191.85 1027.45L2261.02 964.902L2266.45 993.705L2214.2 1040.84L2191.85 1027.45ZM2128.9 985.564L2113.85 974.861L2113.44 974.522L2106.3 960.018L2219.17 857.024L2235.06 889.032L2201.49 919.557L2128.9 985.564ZM2100.76 959.08L2097.89 961.703L2069.74 938.496L2081.98 927.291L2092.2 944.59L2100.76 959.08ZM2079.58 923.494L2066.3 935.656L2062.98 932.915L2038.77 909.91L2057.96 892.282L2078.37 921.75L2079.58 923.494ZM2015.83 635.692L1904.19 740.079L1890.04 731.559L1889.29 730.477L1880.47 715.533L1985.28 617.187L2015.83 635.692ZM1884 730.205L1824.41 744.144L1762.01 758.742L1732.01 707.698L1719.54 686.476L1853.5 678.512L1884 730.205ZM1851.26 674.212L1717.14 682.185L1698.14 643.252L1681.92 610.021L1825.96 622.644L1851.26 674.212ZM1832.4 625.737L1848.64 610.374L1883.72 577.193L1911.97 584.999L1843.92 649.218L1832.4 625.737ZM1830.36 621.581L1829.41 619.65L1821.98 600.597L1852.01 572.138L1878.31 576.224L1830.36 621.581ZM1779.57 462.212L1787.75 508.697L1684.44 474.073L1629.83 455.77L1618.66 390.428L1779.57 462.212ZM1626.33 460.103L1645.67 528.452L1645.26 528.362L1645.89 529.996L1398.55 608.595L1374.58 521.463L1626.33 460.103ZM1481.99 801.965L1714.94 687.371L1757.91 760.489L1613.03 846.746L1535.16 893.105L1481.99 801.965ZM1835.42 1243.58L2002.2 1045.35L2069.55 1100.84L1919.38 1312.44L1835.42 1243.58ZM2365.7 1256.66L2340.69 1154.27L2326.13 1094.63L2371.71 1106.65L2429.81 1273.22L2405.65 1266.98L2365.7 1256.66ZM2238.36 1053.25L2219.15 1043.81L2218.16 1043.22L2266.97 999.189L2268.86 1025.8L2238.36 1053.25ZM1998.91 823.486L1975.85 844.824L1968.74 837.084L1951.21 815.191L1970.92 796.885L1984.92 810.185L1998.91 823.486ZM1816.03 543.175L1812.09 558.902L1789.64 400.601L1785.02 368.033L1790.85 345.109L1792.18 339.874L1816.03 543.175ZM1356.83 352.27L1610.52 322.774L1613.41 383.242L1612.92 383.021L1613.25 384.927L1359.74 429.765L1356.83 352.27ZM1319.42 817.968L1432.21 709.299L1441.57 728.721L1475.95 800.009L1475.79 800.089L1476.1 800.631L1416.62 857.43L1362.89 908.738L1319.42 817.968ZM1893.3 1486.06L2010.03 1381.76L2010.54 1382.12L2010.63 1381.97L2097.27 1433.16L1980.03 1537.03L1893.3 1486.06ZM2302.64 1060.97L2319.23 1054.99L2534.43 1091.85L2506.45 1102.14L2302.64 1060.97ZM2356.5 1021.01L2334.88 1040.38L2326.41 1045.58L2360.53 1014.99L2357.4 1019.67L2356.5 1021.01ZM2265.39 1063.86L2264.57 1063.86L2265.59 1062.94L2265.39 1063.86ZM2249.41 924.84L2158.93 1006.91L2132.59 988.185L2236.91 893.328L2241.84 905.771L2249.41 924.84ZM2214.89 849.4L2217.03 852.996L2104.1 956.04L2085.31 924.244L2198.06 821.012L2214.89 849.4ZM2082.87 920.484L2061.24 889.265L2173.84 785.81L2195.65 817.219L2082.87 920.484ZM1970.86 790.917L1941.6 766.746L2049.96 665.742L2053.45 662.488L2082.9 686.872L1970.86 790.917ZM1938.06 763.999L1907.96 742.601L1950.13 703.172L2019.66 638.164L2049.88 659.773L1938.06 763.999ZM1850.41 567.555L1826.71 567.075L1938.02 461.373L1961.78 461.953L1850.41 567.555ZM1930.72 462.215L1820.29 567.084L1814.4 567.883L1818.24 552.519L1910.4 464.875L1930.72 462.215ZM1836.3 513.486L1842.39 505.155L1863.79 484.787L1870.23 481.19L1836.3 513.486ZM1826.89 519.142L1819.54 535.227L1807.35 431.343L1795.25 328.13L1807.82 301.027L1826.89 519.142ZM1478.39 804.557L1503.6 847.771L1531.37 895.365L1531.22 895.452L1531.49 895.838L1507.77 918.292L1417.7 1003.56L1365 912.837L1478.39 804.557ZM1781.38 1293.2L1832.26 1246.89L1832.47 1247.09L1832.57 1246.96L1865.84 1274.24L1916.42 1315.73L1799.91 1420.8L1716.32 1352.42L1781.38 1293.2ZM1803.52 1423.49L1919.87 1318.56L1920.24 1318.86L1920.33 1318.72L2006.32 1379.15L1889.4 1483.62L1803.52 1423.49ZM1984.25 1539.19L2101.27 1435.52L2101.92 1435.91L2102.01 1435.74L2187.83 1476.97L2070.37 1580.2L1984.25 1539.19ZM2283.65 1507.57L2301.68 1453.16L2365.24 1261.35L2367.01 1262.02L2366.89 1261.54L2430.56 1277.98L2365.09 1527.92L2283.65 1507.57ZM2561.6 1281.98L2469.25 1112.95L2505.56 1106.85L2612.68 1272.91L2561.6 1281.98ZM2370.32 1000.28L2361.16 1008.5L2311.39 1053.11L2293.98 1059.39L2376.46 985.373L2370.32 1000.28ZM2271.78 1051.44L2273.28 1027.77L2387.34 925.076L2385.95 948.869L2334.2 995.36L2271.78 1051.44ZM2143.96 748.541L2114.76 775.471L2031.55 852.207L2005.25 823.633L2117.51 719.753L2133.84 737.522L2143.96 748.541ZM2114.41 716.602L2002.16 820.478L1974.17 793.873L2011.97 758.772L2086.23 689.809L2092.13 695.416L2114.41 716.602ZM1946.4 597.999L1859.41 679.849L1856.65 675.16L1845.96 653.371L1902.48 600.029L1916.84 586.481L1936.52 594.149L1946.4 597.999ZM1915.73 581.449L1887.48 573.64L1940.6 523.392L1999.72 467.475L2028.05 475.451L1915.73 581.449ZM1882.38 572.376L1856.06 568.29L1967.91 462.229L1994.34 466.479L1882.38 572.376ZM1841.68 498.643L1830.83 513.482L1811.57 293.242L1829.61 269.06L1841.68 498.643ZM1617.02 255.635L1616.52 255.302L1616.35 257.083L1565.58 260.19L1365.45 272.436L1382.94 209.235L1629.99 206.417L1617.02 255.635ZM1250.54 389.084L1359.65 280.77L1352.54 348.315L1352.27 348.347L1352.31 349.417L1243.03 457.462L1250.54 389.084ZM1360.16 434.186L1613.99 389.289L1625.08 454.179L1624.61 454.022L1625.13 455.842L1373.64 517.136L1360.16 434.186ZM1420.08 1007.39L1534.03 899.525L1595.5 988.906L1595.37 988.999L1595.56 989.228L1573.19 1010.19L1481.16 1096.47L1420.08 1007.39ZM1633.09 1273.96L1748.55 1167.82L1748.62 1167.89L1748.73 1167.78L1758.28 1176.83L1829.04 1243.84L1712.97 1349.5L1633.09 1273.96ZM2075.85 1581.27L2192.16 1479.05L2192.95 1479.43L2193.03 1479.23L2276.54 1509.93L2158.95 1612.54L2074.99 1582.02L2075.85 1581.27ZM2369.45 1528.71L2434.84 1279.09L2436.7 1279.57L2436.53 1279.06L2496.46 1286.96L2446.32 1538.07L2369.45 1528.71ZM2450.78 1538.24L2500.84 1287.53L2502.72 1287.78L2502.48 1287.25L2557.88 1286.67L2521.94 1536.65L2450.78 1538.24ZM2325.19 1051.52L2340.85 1041.9L2568.07 1072.73L2542.51 1088.75L2325.19 1051.52ZM2387.57 918.92L2273.02 1022.05L2271.13 995.438L2385.54 892.224L2386.4 903.476L2387.57 918.92ZM2263.58 956.629L2254.54 926.156L2369.12 822.265L2378.3 852.84L2263.58 956.629ZM2252.9 921.672L2240.4 890.153L2354.93 785.99L2367.61 817.672L2354.38 829.667L2252.9 921.672ZM2353.07 781.703L2238.46 885.944L2222.56 853.928L2337 749.499L2353.07 781.703ZM2174.45 779.244L2150.1 748.898L2264.06 643.803L2288.6 674.368L2174.45 779.244ZM2132.32 526.731L2019.18 632.554L1988.63 614.044L2026.59 578.427L2101.61 508.041L2121.37 520.071L2132.32 526.731ZM2097.5 505.834L1984.61 611.763L1954.28 596.644L1956.86 594.22L2067.05 490.539L2090.11 502.124L2097.5 505.834ZM1965.37 457.613L1939.68 456.987L1972.64 207.19L2012.78 208.619L1965.37 457.613ZM1376.91 214.494L1360.79 272.722L1360.5 272.74L1360.39 273.817L1311.78 322.066L1252.83 380.584L1269.45 321.496L1376.91 214.494ZM1249.91 1022.75L1361.54 916.14L1361.71 915.974L1369.97 930.179L1414.41 1006.68L1414.31 1006.77L1302.08 1112.96L1249.91 1022.75ZM1685.29 1530.09L1800.05 1426.62L1800.15 1426.53L1838.91 1453.67L1886.01 1486.65L1885.83 1486.81L1770.75 1589.67L1685.29 1530.09ZM2281.27 1511.67L2282.18 1512L2282.26 1511.78L2331.61 1524.11L2362.01 1531.71L2244.48 1633.66L2164.08 1613.93L2281.27 1511.67ZM2590.86 1523.85L2526.48 1536.07L2562.34 1286.62L2564.13 1286.61L2563.84 1286.07L2564.72 1285.92L2613.87 1277.2L2590.86 1523.85ZM2371.24 1021.51L2362.07 1020.63L2373.3 1003.87L2616.93 1016.46L2599.38 1043.36L2371.24 1021.51ZM2619.42 1012.15L2375.4 999.547L2383.66 979.482L2632.07 980.297L2621.38 1007.22L2619.42 1012.15ZM2220.36 849.956L2201.38 817.965L2315.66 713.324L2334.84 745.479L2220.36 849.956ZM2198.94 814.209L2177.12 782.794L2291.25 677.935L2313.25 709.537L2198.94 814.209ZM2261.18 640.445L2191.3 704.89L2147.21 745.546L2120.75 716.751L2168.94 672.163L2234.54 611.463L2253.36 631.942L2261.18 640.445ZM2231.43 608.312L2117.66 713.594L2089.48 686.796L2203.07 581.302L2228.88 605.875L2231.43 608.312ZM2086.17 683.838L2056.72 659.448L2170.1 553.756L2199.74 578.361L2086.17 683.838ZM2062.61 488.649L1949.96 594.641L1920.4 583.119L2032.91 476.951L2059.35 487.367L2062.61 488.649ZM1882.24 469.422L1864.63 479.254L1861.45 240.272L1889.69 224.973L1882.24 469.422ZM1245.22 546.044L1356.14 436.954L1368.49 512.94L1369.34 518.184L1369.12 518.239L1369.37 519.179L1332.36 555.373L1258.18 627.905L1245.22 546.044ZM1304.46 1116.79L1416.84 1010.46L1432.97 1034L1477.9 1099.52L1477.83 1099.6L1477.8 1099.62L1450.83 1124.91L1365.03 1205.36L1304.46 1116.79ZM1367.66 1208.95L1480.56 1103.09L1549.06 1189.05L1435.63 1294.36L1367.66 1208.95ZM1551.82 1192.52L1551.94 1192.41L1622.14 1268.81L1626.72 1273.81L1626.61 1273.92L1512.76 1378.59L1438.5 1297.72L1551.82 1192.52ZM1633.03 1428.25L1713.02 1355.43L1796.59 1423.79L1796.44 1423.93L1681.67 1527.4L1598.6 1459.59L1633.03 1428.25ZM2250.3 1634.46L2367.25 1533.02L2368.25 1533.27L2368.31 1533.03L2413.93 1538.58L2442.85 1542.11L2325.61 1643.27L2250.3 1634.46ZM2573.65 1069.03L2451.59 1052.46L2345.2 1038.03L2358.97 1024.78L2595.57 1047.44L2590.3 1052.63L2573.65 1069.03ZM2466.11 909.451L2391.88 917.396L2389.76 889.414L2639.65 846.976L2643.37 890.477L2466.11 909.451ZM1997.48 462.501L1969.78 458.048L1970.42 454.707L2017.19 209.042L2060.18 216.348L1997.48 462.501ZM1926.92 212.877L1907.32 461.116L1886.71 467.689L1894.17 222.854L1898.55 221.519L1926.92 212.877ZM1652.38 158.216L1632.05 200.752L1631.58 200.388L1631.16 201.977L1384.83 204.788L1411.8 150.089L1652.38 158.216ZM1245.56 394.03L1238.05 462.387L1130.21 569.006L1137.99 500.819L1245.56 394.03ZM1129.53 575.883L1237.29 469.359L1238.12 468.535L1240.63 544.365L1131.71 651.518L1129.53 575.883ZM1808.46 1694.94L1861.6 1647.85L1947.3 1688.36L1833.1 1788.75L1747.74 1748.73L1808.46 1694.94ZM2332.45 1643.2L2336.49 1639.72L2448.78 1542.83L2449.84 1542.96L2449.89 1542.69L2517.73 1541.17L2401.12 1641.38L2332.45 1643.2ZM2409.73 1639.82L2524.7 1541.02L2525.78 1540.99L2525.82 1540.7L2585.16 1529.44L2469.98 1628.15L2409.73 1639.82ZM2652.11 1499.98L2595.43 1522.34L2615.21 1310.36L2618.38 1276.4L2619.99 1276.11L2619.67 1275.61L2663.74 1258.84L2652.11 1499.98ZM2623.77 1014.06L2624.83 1012.43L2624.07 1012.4L2636.29 981.635L2788.74 1099.31L2771.12 1145.08L2623.77 1014.06ZM2633.52 975.876L2384.92 975.062L2389.9 952.034L2640.92 939.566L2640.15 943.327L2633.52 975.876ZM2389.16 885.025L2383.39 855.206L2629.73 796.472L2639.03 842.594L2389.16 885.025ZM2628.64 792.185L2382.33 850.909L2372.97 819.737L2613.86 744.113L2628.64 792.185ZM2612.37 739.944L2371.52 815.555L2358.67 783.453L2592.28 690.63L2612.37 739.944ZM2494.31 527.476L2454.51 555.829L2292.03 671.585L2267.37 640.871L2456.56 480.559L2494.31 527.476ZM2350.87 564.318L2264.49 637.517L2237.72 608.396L2412.68 432.615L2453.67 477.21L2350.87 564.318ZM2135.2 523.306L2104.2 504.441L2147.39 416.991L2215.66 278.782L2263.17 307.976L2135.2 523.306ZM2211.81 276.61L2100.33 502.305L2069.47 486.806L2121.29 358.906L2164.41 252.481L2211.81 276.61ZM2011.96 204.161L1973.22 202.781L1973.28 202.374L1971.94 202.533L1883.27 40.1976L1939.53 42.6177L2011.96 204.161ZM1967.21 203.096L1931.79 207.301L1931.83 206.756L1930.33 207.215L1887.72 141.189L1826.23 45.9084L1878.22 40.1804L1967.21 203.096ZM1157.15 433.261L1259.55 331.341L1259.55 331.352L1263.08 327.84L1261.89 332.063L1246.46 386.899L1140.33 492.273L1157.15 433.261ZM1132.01 657.429L1241.36 549.849L1254.31 631.689L1211.31 673.72L1144.54 738.982L1132.01 657.429ZM1145.48 744.248L1255.15 637.041L1255.52 636.684L1270.93 693.544L1278.9 722.988L1278.8 723.091L1229.81 770.636L1168.44 830.206L1145.48 744.248ZM1091.78 1037.23L1201.27 931.767L1201.48 931.561L1212.14 953.96L1244.45 1021.86L1244.34 1021.95L1134.28 1127.09L1091.78 1037.23ZM1136.38 1131.2L1246.62 1025.89L1298.78 1116.08L1188.05 1220.92L1136.38 1131.2ZM1568.68 1635.25L1681.92 1533.13L1767.36 1592.7L1653.65 1694.27L1568.68 1635.25ZM1657.57 1696.69L1771.19 1595.21L1857.48 1645.6L1743.49 1746.59L1657.57 1696.69ZM2160.01 1617.49L2240.38 1637.21L2124.49 1737.71L2044.37 1718.41L2160.01 1617.49ZM2192.48 1684.6L2245.77 1638.39L2290.46 1643.61L2321.06 1647.19L2320.17 1647.96L2205.46 1746.97L2130.34 1738.49L2192.48 1684.6ZM2472.13 1632.13L2478.71 1629.51L2520.77 1612.75L2410.92 1706.73L2362.3 1726.25L2472.13 1632.13ZM2696.4 969.46L2646.11 936.191L2646.38 934.864L2645.97 934.885L2647.79 896.104L2802.56 981.827L2800.29 1038.18L2696.4 969.46ZM2563.18 632.918L2338.52 743.016L2319.2 710.634L2533.4 583.331L2563.18 632.918ZM2530.99 579.623L2316.8 706.911L2294.68 675.13L2496.96 531.009L2530.99 579.623ZM2202.81 575.165L2173 550.42L2196.57 517.161L2317.19 346.968L2362.72 384.926L2202.81 575.165ZM2313.7 344.252L2169.5 547.721L2138.89 525.741L2208.1 409.279L2266.84 310.435L2313.7 344.252ZM2160.39 250.644L2065.44 485.01L2035.16 473.083L2049.42 429.313L2113.79 231.881L2160.39 250.644ZM1821.47 46.6885L1925.93 208.552L1894.31 218.186L1894.33 217.426L1892.64 218.346L1774.49 60.5044L1821.47 46.6885ZM1888.71 220.472L1859.74 236.167L1733.39 89.1331L1728.86 83.8583L1770.18 62.1142L1888.71 220.472ZM1725.13 86.2914L1856.11 238.725L1831.62 259.818L1734.27 160.706L1690.11 115.745L1725.13 86.2914ZM1301.06 1120.01L1301.21 1119.87L1342.73 1180.58L1361.77 1208.41L1250.45 1312.78L1190.42 1224.76L1301.06 1120.01ZM1323.38 1404.61L1435.26 1300.73L1509.51 1381.59L1509.39 1381.7L1397.13 1484.91L1323.38 1404.61ZM1400.25 1488.05L1439.78 1451.7L1512.61 1384.74L1591.96 1459.65L1479.11 1562.4L1400.25 1488.05ZM1482.47 1565.32L1515.76 1535.01L1595.29 1462.6L1678.35 1530.39L1678.2 1530.53L1565.06 1632.56L1482.47 1565.32ZM2254.92 1710.12L2327.16 1647.77L2395.81 1645.95L2394.2 1647.33L2394.21 1647.33L2280.88 1744.76L2212.34 1746.87L2254.92 1710.12ZM2402.81 1645.76L2402.96 1645.63L2441.79 1638.11L2463.19 1633.97L2349.68 1731.24L2289.54 1743.15L2402.81 1645.76ZM2656.65 1497.27L2667.39 1274.69L2668.24 1257.13L2669.63 1256.6L2669.29 1256.15L2706.73 1232.06L2704.83 1465.47L2656.65 1497.27ZM2709.09 1224.74L2577.44 1071.49L2600.47 1048.82L2741.32 1192.21L2709.09 1224.74ZM2744.06 1188.68L2603.32 1045.41L2621.33 1017.8L2769.16 1149.25L2744.06 1188.68ZM2789.91 1094.62L2637.99 977.362L2638.57 975.894L2638.02 975.892L2645.16 940.865L2799.89 1043.22L2789.91 1094.62ZM2796.73 916.005L2802.24 976.595L2648.02 891.177L2648.08 889.974L2647.76 890.008L2644.17 847.94L2796.73 916.005ZM2059.59 211.759L2018.02 204.695L2018.08 204.379L2016.88 204.337L1944.71 43.3672L2004.52 53.9014L2059.59 211.759ZM2795.78 910.737L2664.42 852.132L2643.74 842.903L2643.64 841.812L2643.39 841.855L2634.36 797.101L2782.59 846.758L2795.78 910.737ZM2781.11 841.596L2726.07 823.158L2633.35 792.098L2633.15 791.109L2632.94 791.159L2619.24 746.587L2618.54 744.299L2760.42 775.112L2781.11 841.596ZM2720.88 761.997L2617.04 739.447L2616.77 738.56L2616.59 738.617L2596.91 690.286L2730.5 702.002L2758.5 770.166L2720.88 761.997ZM2684.13 693.493L2595.04 685.681L2594.72 684.903L2594.56 684.966L2569.8 635.855L2693.38 628.487L2728.26 697.363L2684.13 693.493ZM2690.91 624.2L2627.69 627.97L2567.63 631.55L2567.3 630.899L2567.16 630.967L2545.67 595.189L2537.62 581.773L2649.56 555.597L2690.91 624.2ZM2596.95 480.68L2498.25 525.15L2498.03 524.825L2497.91 524.908L2460.02 477.819L2544.49 415.524L2596.95 480.68ZM2491.24 449.303L2457.25 474.373L2457.15 474.258L2457.04 474.35L2430.96 445.974L2415.8 429.48L2415.9 429.378L2415.8 429.279L2484.69 350.274L2541.59 412.169L2491.24 449.303ZM2481.59 347.102L2412.6 426.225L2377.61 392.831L2368.87 384.483L2368.96 384.373L2368.66 384.121L2421.12 289.346L2481.59 347.102ZM2350.94 230.628L2315.6 340.17L2308.5 335.045L2269.11 306.619L2269.19 306.485L2268.57 306.104L2286.1 183.653L2350.94 230.628ZM2282.04 180.839L2264.47 303.585L2217.63 274.799L2217.7 274.648L2216.96 274.269L2216.41 140.32L2282.04 180.839ZM2211.98 137.706L2212.53 272.016L2166.08 248.366L2166.15 248.194L2165.29 247.848L2146.48 104.137L2211.98 137.706ZM2072.23 73.7328L2109.37 225.757L2065.58 213.037L2065.64 212.787L2064.56 212.604L2046.02 159.446L2009.68 55.2842L2072.23 73.7328ZM1764.9 8.39061L1911.57 36.985L1880.79 35.661L1880.68 35.4565L1879.53 35.5832L1721.1 6.47839L1764.9 8.39061ZM1618.72 12.6928L1812.53 44.7066L1779.15 54.5242L1771.67 56.7239L1771.46 56.4446L1770.42 56.9891L1565.02 28.203L1618.72 12.6928ZM1425.33 125.275L1409.41 145.579L1409.11 145.569L1408.64 146.52L1395.57 159.552L1321.21 233.716L1337.66 212.787L1425.33 125.275ZM1076 484.496L1176.76 384.017L1153.38 430.783L1052.49 531.217L1076 484.496ZM1046.36 543.562L1150.74 439.642L1133.92 498.629L1109.32 523.058L1029.33 602.458L1046.36 543.562ZM1026.94 611.054L1131.45 507.315L1132.98 505.793L1125.2 573.957L1125.07 574.085L1038.25 659.916L1018.87 679.078L1026.94 611.054ZM1020.29 767.314L1128.13 661.245L1128.52 663.801L1140.66 742.777L1140.54 742.886L1032.46 848.564L1020.29 767.314ZM1085.92 1074.07L1063.93 974.951L1066.57 982.106L1086.54 1036.14L1086.43 1036.24L1087 1037.43L1094.62 1076.01L1103.77 1122.35L1085.92 1074.07ZM1113.42 1148.37L1094.72 1053.77L1128.08 1124.29L1130.92 1130.3L1130.82 1130.4L1131.47 1131.53L1142.6 1210.2L1113.42 1148.37ZM1192.07 1298.42L1189.98 1231.95L1221.82 1278.65L1247.19 1315.84L1247.09 1315.94L1247.73 1316.75L1243.51 1339.77L1238.58 1366.69L1192.07 1298.42ZM1242.13 1371.78L1251.38 1321.34L1317.27 1404.26L1317.15 1404.36L1317.49 1404.73L1309.37 1417.46L1295.58 1439.08L1242.13 1371.78ZM1386.12 1496.39L1396.54 1490.79L1396.87 1491.15L1396.98 1491.05L1452.29 1543.19L1474.05 1563.71L1423.28 1568.98L1360.78 1510.02L1386.12 1496.39ZM1478.3 1567.72L1479.05 1568.43L1479.16 1568.33L1521.69 1602.96L1557.9 1632.43L1492.12 1625.06L1428.04 1572.94L1478.3 1567.72ZM1499.68 1630.36L1564.24 1637.6L1565.2 1638.38L1565.31 1638.29L1633.57 1685.7L1643.25 1692.42L1563.01 1674.32L1499.68 1630.36ZM1575.73 1681.72L1652.92 1699.14L1654 1699.89L1654.1 1699.79L1727.36 1742.34L1634.91 1716.04L1575.73 1681.72ZM1659.78 1727.71L1719.91 1744.8L1742.85 1751.34L1744.03 1752.02L1744.13 1751.93L1803.44 1779.73L1706.85 1749.76L1659.78 1727.71ZM1926.25 1821.48L1987 1768.47L2040.28 1721.98L2063.92 1727.67L2120.39 1741.27L2119.82 1741.76L2006.13 1840.39L1926.25 1821.48ZM2011.99 1841.15L2059.54 1799.9L2125.79 1742.43L2130.35 1742.95L2200.89 1750.91L2086.9 1849.27L2011.99 1841.15ZM2170.91 1845.08L2207.82 1813.37L2282.72 1749.01L2329.45 1739.76L2342.83 1737.11L2230.96 1832.96L2170.91 1845.08ZM2329.05 1754.74L2351.66 1735.36L2351.83 1735.22L2400.42 1715.72L2292.21 1808.26L2243.67 1827.9L2329.05 1754.74ZM2584.02 1568.89L2561.11 1584.06L2646.66 1510.88L2655.37 1503.45L2656.38 1503.05L2656.39 1502.75L2678.45 1488.18L2584.02 1568.89ZM2709.28 1461.17L2711.17 1229.21L2712.3 1228.48L2711.97 1228.1L2718.38 1221.64L2742.36 1197.44L2748.4 1420.89L2709.28 1461.17ZM2780.7 1262.24L2774.27 1149.44L2774.9 1148.45L2774.64 1148.21L2789.98 1108.38L2806.01 1304.84L2786.11 1357.19L2780.7 1262.24ZM2804.56 1042.29L2804.78 1041.16L2804.59 1041.03L2804.6 1040.82L2805.85 1009.84L2822.39 1158.93L2820.67 1203.36L2804.56 1042.29Z" fill="url(#paint0_linear_3149_11121)"/>
</g>
</g>
<defs>
<linearGradient id="paint0_linear_3149_11121" x1="1920" y1="0" x2="1920" y2="1854" gradientUnits="userSpaceOnUse">
<stop stop-color="#4065EB"/>
<stop offset="1" stop-color="#62FF49" stop-opacity="0.87"/>
</linearGradient>
<clipPath id="clip0_3149_11121">
<rect width="1920" height="1080" fill="white"/>
</clipPath>
<clipPath id="clip1_3149_11121">
<rect width="1814" height="1854" fill="white" transform="translate(1013)"/>
</clipPath>
</defs>
</svg>
