<?xml version="1.0" encoding="utf-8"?>
<svg version="1.1" id="Layer_1" xmlns="http://www.w3.org/2000/svg"
     xmlns:xlink="http://www.w3.org/1999/xlink" x="0px" y="0px"
     viewBox="383 445 1133 667" style="enable-background:new 383 445 1133 667;" xml:space="preserve">
<defs>
  <filter id="darkGlow">
    <feGaussianBlur stdDeviation="6" result="blur"/>
    <feMerge>
      <feMergeNode in="blur"/>
      <feMergeNode in="SourceGraphic"/>
    </feMerge>
  </filter>
</defs>
<style type="text/css">
	.st0{fill:#7BB8E8;}
</style>
<g filter="url(#darkGlow)">
	<g>
		<g>
			<polygon fill="#f8fafc" points="707.33,908.48 707.33,966.35 631.88,966.35 631.88,908.48 606.59,908.48 606.59,1058.52 631.88,1058.52
				631.88,989.71 707.33,989.71 707.33,1058.52 732.62,1058.52 732.62,908.48 			"/>
		</g>
	</g>
	<g>
		<g>
			<path fill="#f8fafc" d="M947.15,1105.67V959.92h23.36v145.75H947.15z M1045.54,1037.19c-4.43,7.79-10.29,13.72-17.58,17.79
				c-7.29,4.07-15.22,6.11-23.79,6.11c-8.29,0-15.54-2.11-21.76-6.32c-6.22-4.21-11.04-10.21-14.47-18
				c-3.43-7.79-5.14-16.97-5.14-27.54c0-10.72,1.71-19.93,5.14-27.65c3.43-7.72,8.25-13.72,14.47-18
				c6.22-4.29,13.47-6.43,21.76-6.43c8.57,0,16.5,2.07,23.79,6.22c7.29,4.15,13.15,10.04,17.58,17.68
				c4.43,7.65,6.64,17.04,6.64,28.19C1052.18,1020.08,1049.97,1029.4,1045.54,1037.19z M1024.1,992.39
				c-2.72-4.64-6.29-8.15-10.72-10.5c-4.43-2.36-9.36-3.54-14.79-3.54c-4.57,0-9,1.18-13.29,3.54c-4.29,2.36-7.82,5.82-10.61,10.4
				c-2.79,4.57-4.18,10.22-4.18,16.93c0,6.72,1.39,12.36,4.18,16.93c2.79,4.57,6.32,8.04,10.61,10.4c4.29,2.36,8.71,3.54,13.29,3.54
				c5.43,0,10.36-1.21,14.79-3.64c4.43-2.43,8-5.93,10.72-10.5c2.71-4.57,4.07-10.14,4.07-16.72
				C1028.18,1002.65,1026.82,997.04,1024.1,992.39z"/>
		</g>
	</g>
	<g>
		<g>
			<path fill="#f8fafc" d="M1097.62,1058.52h-23.36V891.33h23.36V1058.52z M1133.31,982c-2.93-3.71-7.54-5.57-13.83-5.57
				c-4.43,0-8.29,0.93-11.57,2.79c-3.29,1.86-5.82,4.43-7.61,7.72c-1.79,3.29-2.68,7.15-2.68,11.57h-5.57
				c0-7.86,1.39-14.9,4.18-21.11c2.79-6.22,6.79-11.15,12-14.79c5.21-3.64,11.54-5.47,18.97-5.47c7.43,0,13.64,1.43,18.65,4.29
				c5,2.86,8.79,7.11,11.36,12.75c2.57,5.65,3.86,12.68,3.86,21.11v63.23h-23.36V998.5C1137.7,991.21,1136.24,985.71,1133.31,982z"
				/>
		</g>
	</g>
	<g>
		<g>
			<path fill="#f8fafc" d="M1207.04,1054.23c-7.65-4.29-13.54-10.29-17.68-18c-4.15-7.72-6.22-16.72-6.22-27.01c0-10.43,2.11-19.5,6.32-27.22
				c4.21-7.72,10.18-13.68,17.9-17.9c7.72-4.21,16.79-6.32,27.22-6.32c10.43,0,19.32,2,26.69,6c7.36,4,12.97,9.75,16.83,17.25
				s5.79,16.54,5.79,27.11c0,1.15-0.04,2.36-0.11,3.64c-0.07,1.29-0.11,2.22-0.11,2.79h-86.59V998.5h66.66l-7.07,9.86
				c0.43-0.86,0.89-2,1.39-3.43c0.5-1.43,0.75-2.64,0.75-3.64c0-5.28-1.04-9.86-3.11-13.72c-2.07-3.86-4.93-6.86-8.57-9
				c-3.64-2.14-7.9-3.22-12.75-3.22c-5.86,0-10.82,1.29-14.9,3.86s-7.22,6.29-9.43,11.15c-2.22,4.86-3.32,10.86-3.32,18
				c-0.14,7,0.89,13,3.11,18c2.21,5,5.39,8.79,9.54,11.36c4.14,2.57,9.22,3.86,15.22,3.86c6.43,0,12-1.29,16.72-3.86
				c4.72-2.57,8.57-6.5,11.57-11.79l20.15,7.93c-5.29,8.86-12,15.54-20.15,20.04c-8.15,4.5-17.93,6.75-29.36,6.75
				C1223.51,1060.66,1214.69,1058.52,1207.04,1054.23z"/>
		</g>
	</g>
	<g>
		<g>
			<path fill="#f8fafc" d="M1365.12,982c-3-3.71-7.58-5.57-13.72-5.57c-4.43,0-8.29,0.89-11.57,2.68c-3.29,1.79-5.82,4.36-7.61,7.72
				c-1.79,3.36-2.68,7.25-2.68,11.68v60.02h-23.36v-98.6h23.36v15.22c3.14-5.86,7.18-10.21,12.11-13.08
				c4.93-2.86,10.75-4.29,17.47-4.29c11.15,0,19.65,3.4,25.51,10.18c5.86,6.79,8.79,16.04,8.79,27.76v62.8h-23.79V998.5
				C1369.62,991.21,1368.12,985.71,1365.12,982z"/>
		</g>
	</g>
	<g>
		<path class="st0" d="M919.08,1108.67h-28.93v-104.6h28.93V1108.67z M896.14,1102.67h16.93v-92.6h-16.93V1102.67z M904.5,985
			c-4.64,0-8.76-1.68-12.25-5.01c-3.53-3.36-5.33-7.44-5.33-12.14c0-4.85,1.8-8.98,5.35-12.27h0c3.49-3.23,7.6-4.87,12.22-4.87
			c4.91,0,9.14,1.65,12.57,4.9c3.47,3.3,5.22,7.42,5.22,12.25c0,4.68-1.75,8.75-5.19,12.11C913.67,983.3,909.43,985,904.5,985z
			 M896.36,959.98c-2.31,2.14-3.43,4.72-3.43,7.87c0,3.03,1.13,5.58,3.46,7.79c2.37,2.26,5.02,3.35,8.11,3.35
			c3.36,0,6.11-1.09,8.41-3.33c2.27-2.22,3.38-4.78,3.38-7.82c0-3.17-1.1-5.75-3.35-7.9c-2.3-2.18-5.06-3.25-8.44-3.25
			C901.4,956.7,898.73,957.77,896.36,959.98L896.36,959.98z"/>
	</g>
	<g>
		<polygon class="st0" points="847.49,1051.43 754.49,1051.43 754.49,978.57 865.06,978.57 865.06,1048.43 859.06,1048.43
			859.06,984.57 760.49,984.57 760.49,1045.43 847.49,1045.43 		"/>
	</g>
	<g>
		<rect x="847.49" y="1062.15" class="st0" width="14.57" height="6"/>
	</g>
	<g>
		<polygon class="st0" points="850.49,981.57 844.49,981.57 844.49,956.29 757.49,956.29 757.49,950.29 850.49,950.29 		"/>
	</g>
	<g>
		<rect x="780.2" y="999.57" class="st0" width="6" height="15.43"/>
	</g>
	<g>
		<rect x="831.63" y="999.57" class="st0" width="6" height="15.43"/>
	</g>
	<g>
		<rect x="783.2" y="1030" class="st0" width="51.43" height="6"/>
	</g>
</g>
</svg>
